# xmcd
#
# Track frame offsets:
#	150
#	10436
#	26307
#	38054
#	53249
#	67685
#	78344
#	94236
#	106524
#	121742
#	138817
#	151543
#	165179
#	181799
#	199773
#
# Disc length: 2818 seconds
#
# Revision: 1
# Processed by: cddbd v1.5PL3 Copyright (c) Steve Scherf et al.
# Submitted via: audiograbber 1.83.01
#
DISCID=9c0b000f
DTITLE=Chantal Hamel - Des Souvenirs
DYEAR=2003
DGENRE=Country
TTITLE0=Swinger danser
TTITLE1=Petit ange
TTITLE2=Des souvenirs
TTITLE3=Les yeux fermés
TTITLE4=Un amour de vacances
TTITLE5=Allez allez
TTITLE6=A cet amour oublié
TTITLE7=Chu décidée
TTITLE8=Sur tes cheveux grisés
TTITLE9=Un coin de paradis
TTITLE10=Partir en tournée
TTITLE11=Femme libérée
TTITLE12=Mon coeur s'est endurci
TTITLE13=Ne laisse jamais tomber
TTITLE14=Baby baby baby
EXTD=
EXTT0=
EXTT1=
EXTT2=
EXTT3=
EXTT4=
EXTT5=
EXTT6=
EXTT7=
EXTT8=
EXTT9=
EXTT10=
EXTT11=
EXTT12=
EXTT13=
EXTT14=
PLAYORDER=
